<svg fill="#000000" width="800px" height="800px" viewBox="0 0 32 32" id="Outlined" xmlns="http://www.w3.org/2000/svg">

<g id="OuterFill">
    <!-- Path ngoài, fill màu xanh nước biển -->
    <path d="M24,11H21V5a3,3,0,0,0-3-3h-.4a3,3,0,0,0-2.91,2.28l-2,5.5A1.84,1.84,0,0,1,11,11H3V29H24a5,5,0,0,0,5-5V16A5,5,0,0,0,24,11Z"
          fill="#FFFFFF" stroke="#1E88E5"/>
          
</g>

<g id="InnerFill">
    <!-- Path bên trong, fill màu đen -->
    <path d="M9,27H5V13H9Zm18-3a3,3,0,0,1-3,3H11V13a3.83,3.83,0,0,0,3.61-2.55l2-5.55,0-.12a1,1,0,0,1,1-.78H18a1,1,0,0,1,1,1v8h5a3,3,0,0,1,3,3Z"
          fill="#1E88E5" />
</g>

</svg>